<?xml version="1.0" encoding="UTF-8"?><svg id="Layer_1" xmlns="http://www.w3.org/2000/svg" viewBox="0 0 176.53 15.1"><defs><style>.cls-1{fill:#fff;}.cls-2{fill:#269b05;}.cls-3{fill:#424242;}</style></defs><g><path class="cls-3" d="M23.45,11.69V3.25h-1.95l.64-.99h2.41V11.69h-1.11Z"/><path class="cls-3" d="M32.28,11.95c-1.03,0-1.84-.44-2.43-1.32-.59-.88-.89-2.09-.89-3.63s.29-2.74,.88-3.61c.59-.88,1.39-1.32,2.41-1.32s1.85,.43,2.44,1.3,.88,2.08,.88,3.63-.29,2.76-.88,3.63c-.58,.87-1.39,1.31-2.42,1.31Zm-.01-.93c.7,0,1.23-.34,1.59-1.02s.54-1.67,.54-2.98-.18-2.31-.54-3c-.36-.68-.89-1.02-1.59-1.02s-1.2,.35-1.57,1.05c-.38,.7-.56,1.68-.56,2.94s.19,2.26,.56,2.97c.38,.71,.9,1.06,1.57,1.06Z"/><path class="cls-3" d="M40.8,11.95c-1.03,0-1.84-.44-2.43-1.32s-.89-2.09-.89-3.63,.29-2.74,.88-3.61c.59-.88,1.39-1.32,2.41-1.32s1.85,.43,2.44,1.3c.58,.87,.88,2.08,.88,3.63s-.29,2.76-.88,3.63c-.58,.87-1.39,1.31-2.42,1.31Zm-.01-.93c.7,0,1.23-.34,1.59-1.02,.36-.68,.54-1.67,.54-2.98s-.18-2.31-.54-3c-.36-.68-.89-1.02-1.59-1.02s-1.2,.35-1.57,1.05c-.38,.7-.56,1.68-.56,2.94s.19,2.26,.56,2.97c.38,.71,.9,1.06,1.57,1.06Z"/><path class="cls-3" d="M49.67,4.54c0,.78-.17,1.38-.51,1.81-.34,.43-.82,.64-1.44,.64s-1.1-.21-1.44-.64c-.35-.43-.52-1.03-.52-1.81s.17-1.38,.52-1.81,.83-.65,1.44-.65,1.1,.22,1.44,.65,.52,1.04,.52,1.81Zm-1.96,1.8c.32,0,.57-.16,.74-.47,.17-.31,.26-.76,.26-1.34s-.08-1.05-.25-1.35c-.17-.31-.42-.46-.75-.46s-.56,.16-.74,.47c-.17,.31-.26,.76-.26,1.34s.09,1.02,.26,1.34c.17,.31,.42,.47,.74,.47Zm-.56,5.61l5.46-9.88h.8l-5.45,9.88h-.82Zm7.77-2.46c0,.78-.17,1.38-.51,1.81-.34,.43-.82,.65-1.44,.65s-1.09-.22-1.44-.65c-.35-.43-.52-1.04-.52-1.81s.17-1.38,.52-1.81c.35-.43,.83-.65,1.44-.65s1.1,.22,1.44,.65c.34,.43,.51,1.04,.51,1.81Zm-1.96,1.81c.32,0,.57-.16,.74-.47,.17-.31,.26-.76,.26-1.34s-.08-1.05-.25-1.35c-.17-.3-.42-.45-.75-.45s-.56,.16-.74,.47-.26,.76-.26,1.34,.09,1.03,.26,1.34c.17,.31,.42,.47,.74,.47Z"/><path class="cls-3" d="M65.12,6.4c.62,.26,1.09,.62,1.4,1.05,.31,.44,.47,.96,.47,1.55,0,.88-.28,1.58-.84,2.12-.56,.54-1.3,.8-2.21,.8-.75,0-1.38-.19-1.89-.58-.51-.38-.85-.93-1.03-1.64l1.03-.51c.14,.58,.37,1.01,.69,1.31,.32,.3,.72,.45,1.2,.45,.57,0,1.03-.16,1.38-.49,.35-.33,.53-.75,.53-1.28,0-.43-.12-.79-.37-1.11-.24-.31-.61-.58-1.11-.8l-1.16-.49c-.63-.26-1.1-.61-1.42-1.02-.31-.42-.46-.92-.46-1.5,0-.68,.25-1.24,.75-1.68,.5-.44,1.15-.66,1.93-.66,.57,0,1.07,.12,1.49,.36,.42,.24,.75,.6,.98,1.07l-.94,.6c-.21-.37-.45-.64-.72-.82s-.56-.27-.9-.27c-.43,0-.77,.13-1.04,.39-.27,.26-.41,.59-.41,1,0,.34,.1,.63,.31,.88,.21,.25,.53,.47,.97,.66l1.36,.6Z"/><path class="cls-3" d="M69.17,11.69V2.17h5.02v1.03h-3.89v2.73h3.89v1.05h-3.89v3.65h3.89v1.05h-5.02Z"/><path class="cls-3" d="M84.5,4.45c-.46-.49-.94-.86-1.46-1.1-.52-.24-1.09-.35-1.71-.35-.5,0-.99,.1-1.47,.31-.48,.2-.89,.49-1.25,.85-.36,.38-.64,.8-.82,1.27-.18,.47-.27,.98-.27,1.54,0,.44,.05,.85,.16,1.22,.11,.37,.27,.72,.49,1.03,.38,.54,.85,.96,1.41,1.25,.56,.29,1.16,.44,1.8,.44,.61,0,1.17-.13,1.69-.38,.52-.25,1-.63,1.42-1.13v1.5c-.47,.34-.98,.6-1.53,.78s-1.11,.26-1.69,.26c-.5,0-.99-.08-1.47-.22-.48-.15-.92-.37-1.34-.65-.69-.48-1.22-1.07-1.59-1.78-.37-.7-.55-1.47-.55-2.32,0-.73,.12-1.4,.37-2,.25-.6,.62-1.15,1.12-1.64,.49-.47,1.02-.82,1.61-1.05,.59-.23,1.23-.35,1.93-.35,.55,0,1.08,.08,1.6,.25,.52,.17,1.03,.43,1.53,.78v1.48Z"/><path class="cls-3" d="M87.06,2.17h1.15v5.93c0,.96,.21,1.67,.61,2.12,.41,.45,1.05,.68,1.93,.68s1.52-.23,1.93-.68c.41-.45,.61-1.16,.61-2.12V2.17h1.15v5.93c0,1.29-.31,2.25-.92,2.89-.61,.64-1.54,.96-2.77,.96s-2.16-.32-2.77-.96-.92-1.6-.92-2.89V2.17Z"/><path class="cls-3" d="M97.36,11.69V2.17h2.24c.64,0,1.1,.04,1.4,.11,.3,.07,.56,.19,.78,.37,.28,.22,.5,.52,.66,.89s.23,.78,.23,1.23c0,.78-.22,1.37-.65,1.78-.44,.41-1.07,.61-1.92,.61h-.2l3.64,4.54h-1.44l-3.47-4.54h-.16v4.54h-1.11Zm1.11-8.57v3.19h.87c.88,0,1.48-.11,1.78-.34,.3-.23,.45-.62,.45-1.19,0-.61-.15-1.04-.46-1.29s-.9-.37-1.76-.37h-.87Z"/><path class="cls-3" d="M105.16,11.69V2.17h5.02v1.03h-3.89v2.73h3.89v1.05h-3.89v3.65h3.89v1.05h-5.02Z"/><path class="cls-3" d="M118.47,7.42v4.27h-1.11V2.17h2c.7,0,1.21,.04,1.54,.11,.33,.07,.62,.2,.86,.36,.3,.22,.54,.51,.71,.89,.17,.38,.26,.79,.26,1.25s-.09,.88-.26,1.26c-.17,.38-.41,.67-.71,.89-.24,.17-.53,.3-.86,.37-.33,.07-.84,.11-1.55,.11h-.89Zm0-1.03h.57c.97,0,1.62-.11,1.96-.34,.34-.23,.5-.62,.5-1.19,0-.61-.17-1.03-.52-1.28-.34-.25-.99-.37-1.95-.37h-.57v3.19Z"/><path class="cls-3" d="M127.08,1.79l4.33,9.9h-1.23l-1.24-2.92h-3.72l-1.24,2.92h-1.23l4.32-9.9Zm0,2.5l-1.52,3.51h3.03l-1.52-3.51Z"/><path class="cls-3" d="M134.42,11.69V7.33l-3.23-5.17h1.31l2.49,4.13,2.48-4.13h1.3l-3.22,5.17v4.36h-1.13Z"/><path class="cls-3" d="M145.05,12.06l-2.96-6.84-1.2,6.47h-1.11l1.93-9.9,3.33,7.88,3.33-7.88,1.93,9.9h-1.11l-1.21-6.47-2.95,6.84Z"/><path class="cls-3" d="M152.44,11.69V2.17h5.02v1.03h-3.89v2.73h3.89v1.05h-3.89v3.65h3.89v1.05h-5.02Z"/><path class="cls-3" d="M160.05,11.69V1.79l6.97,7.61V2.17h1.08V12.06l-6.97-7.53v7.16h-1.08Z"/><path class="cls-3" d="M172.71,11.69V3.25h-2.69v-1.08h6.52v1.08h-2.68V11.69h-1.14Z"/></g><g><path class="cls-1" d="M6.33,15.1c-2.25-.56-4.8-2.94-5.73-5.53C.3,8.73,.07,7.88,.05,6.99,0,5.63,.02,4.28,0,2.93c0-.2,.08-.29,.29-.35,.99-.28,1.97-.61,2.92-1.01,1.02-.43,2.01-.92,2.96-1.48,.19-.11,.34-.11,.53,0,1.84,1.07,3.78,1.9,5.83,2.48,.29,.08,.35,.16,.35,.46,0,1.15,.02,2.3-.01,3.45-.06,2.37-.89,4.44-2.51,6.18-.8,.86-1.72,1.57-2.78,2.08-.32,.16-.68,.25-1.02,.37h-.24ZM12.26,3.15c-.06-.02-.12-.04-.18-.06-.42-.14-.84-.26-1.26-.41-1.47-.51-2.88-1.16-4.23-1.93-.1-.06-.18-.06-.28,0-.21,.13-.43,.24-.64,.36-1.56,.83-3.18,1.5-4.88,1.99-.12,.04-.16,.09-.16,.21,0,.92,0,1.85,0,2.77,0,1.1,.16,2.17,.55,3.21,.45,1.23,1.15,2.3,2.09,3.21,.78,.77,1.66,1.4,2.68,1.82,.31,.13,.62,.18,.94,.03,.14-.07,.28-.12,.42-.19,.99-.48,1.85-1.14,2.59-1.94,1.47-1.57,2.25-3.44,2.34-5.59,.05-1.13,.02-2.27,.03-3.41,0-.02,0-.05,0-.08Z"/><path class="cls-1" d="M5.43,8.05c.15-.15,.28-.29,.41-.42,.91-.91,1.82-1.82,2.72-2.72,.39-.39,.87-.47,1.32-.21,.53,.3,.67,1.04,.29,1.51-.05,.06-.09,.11-.15,.17-1.27,1.27-2.53,2.53-3.8,3.8-.39,.39-.87,.47-1.31,.21-.09-.05-.18-.13-.25-.2-.6-.59-1.19-1.19-1.79-1.78-.48-.49-.46-1.18,.05-1.59,.36-.29,.91-.3,1.26,0,.35,.31,.68,.66,1.01,.99,.08,.08,.15,.16,.24,.25Zm-.08,1.84c.21,0,.31-.07,.42-.17,1.27-1.27,2.54-2.54,3.81-3.81,.03-.03,.06-.06,.09-.1,.17-.23,.06-.54-.21-.62-.19-.06-.33,.03-.46,.16-1.09,1.09-2.18,2.18-3.27,3.27-.23,.23-.38,.23-.61,0-.42-.42-.85-.85-1.27-1.27-.18-.18-.42-.18-.58-.02-.16,.16-.16,.4,.02,.58,.61,.61,1.22,1.23,1.84,1.83,.07,.07,.18,.11,.23,.14Z"/></g><g><path class="cls-2" d="M6.32,15.1c-2.25-.56-4.8-2.94-5.73-5.53C.3,8.73,.07,7.88,.04,6.99,0,5.63,0,4.28,0,2.93c0-.2,.08-.29,.29-.35,.99-.28,1.97-.61,2.92-1.01,1.02-.43,2.01-.92,2.96-1.48,.19-.11,.34-.11,.53,0,1.84,1.07,3.78,1.9,5.83,2.48,.29,.08,.35,.16,.35,.46,0,1.15,.02,2.3-.01,3.45-.06,2.37-.89,4.44-2.51,6.18-.8,.86-1.72,1.57-2.78,2.08-.32,.16-.68,.25-1.02,.37h-.24Z"/><path class="cls-1" d="M5.42,8.05c.15-.15,.28-.29,.41-.42,.91-.91,1.82-1.82,2.72-2.72,.39-.39,.87-.47,1.32-.21,.53,.3,.67,1.04,.29,1.51-.05,.06-.09,.11-.15,.17-1.27,1.27-2.53,2.53-3.8,3.8-.39,.39-.87,.47-1.31,.21-.09-.05-.18-.13-.25-.2-.6-.59-1.19-1.19-1.79-1.78-.48-.49-.46-1.18,.05-1.59,.36-.29,.91-.3,1.26,0,.35,.31,.68,.66,1.01,.99,.08,.08,.15,.16,.24,.25Zm-.08,1.84c.21,0,.31-.07,.42-.17,1.27-1.27,2.54-2.54,3.81-3.81,.03-.03,.06-.06,.09-.1,.17-.23,.06-.54-.21-.62-.19-.06-.33,.03-.46,.16-1.09,1.09-2.18,2.18-3.27,3.27-.23,.23-.38,.23-.61,0-.42-.42-.85-.85-1.27-1.27-.18-.18-.42-.18-.58-.02-.16,.16-.16,.4,.02,.58,.61,.61,1.22,1.23,1.84,1.83,.07,.07,.18,.11,.23,.14Z"/></g></svg>