<?xml version="1.0" encoding="UTF-8"?><svg id="Layer_1" xmlns="http://www.w3.org/2000/svg" viewBox="0 0 222.47 12.46"><defs><style>.cls-1{fill:#fabb05;}.cls-2{fill:#f9a51a;}.cls-3{fill:#e94336;}.cls-4{fill:#f79e1b;}.cls-5{fill:#ff5a00;}.cls-6{fill:#673ab7;}.cls-7{fill:#606469;}.cls-8{fill:#eb001b;}.cls-9{fill:#00579e;}.cls-10{fill:#34a853;}.cls-11{fill:#5f6368;}.cls-12{fill:#00579f;}.cls-13{fill:#606468;}.cls-14{fill:#4285f3;}.cls-15{fill:#0370cf;}</style></defs><g><path class="cls-3" d="M.54,2.99c.26-.54,.61-1.01,1.05-1.42C2.43,.79,3.43,.34,4.58,.24c.02,0,.04-.01,.06-.02h.83c.18,.03,.37,.06,.55,.1,.88,.18,1.64,.57,2.3,1.17,.01,.01,.02,.02,.03,.03l-1.43,1.42s0,0-.02-.01c-1.16-1.07-3.03-.93-4.1,.29-.27,.31-.47,.66-.61,1.05-.17-.13-.35-.26-.52-.39-.38-.29-.76-.58-1.14-.88Z"/><path class="cls-13" d="M14.37,6.1v3.53h-1.12V.92s.06,0,.09,0c.99,0,1.97,0,2.96,0,1.22,0,2.35,.89,2.59,2.03,.35,1.69-.81,2.78-1.88,3.06-.23,.06-.47,.09-.7,.1-.6,.01-1.2,0-1.79,0-.04,0-.09,0-.15,0Zm0-1.07c.64,0,1.27,0,1.9,0,.05,0,.1,0,.14,0,.07,0,.14-.02,.21-.03,.76-.18,1.27-.89,1.18-1.66-.08-.72-.76-1.36-1.52-1.35-.59,.01-1.19,0-1.78,0h-.12v3.04Z"/><path class="cls-11" d="M19.13,4.65c.35-.5,.8-.85,1.38-1.02,.77-.23,1.55-.22,2.3,.08,.82,.33,1.27,.96,1.38,1.83,.02,.14,.03,.29,.03,.44,0,1.18,0,2.36,0,3.55v.11h-1.07v-.82h-.03s-.06,.05-.08,.09c-.95,1.36-2.89,1.09-3.7,.08-.63-.79-.66-2.36,.81-2.98,.56-.24,1.15-.27,1.75-.23,.43,.03,.85,.13,1.24,.34,.1-.63-.23-1.22-.84-1.5-.73-.33-1.59-.12-2.1,.54l-.08,.1-.98-.62Zm2.6,2.03c-.07,0-.14,0-.21,0-.46,.03-.88,.17-1.19,.53-.36,.41-.3,1.01,.13,1.34,.36,.28,.76,.34,1.2,.27,.74-.12,1.39-.79,1.49-1.53,.02-.13,0-.22-.14-.3-.4-.23-.83-.31-1.28-.3Z"/><path class="cls-7" d="M25.48,12.27c.02-.05,.04-.09,.06-.13,.42-.92,.85-1.84,1.28-2.76,.04-.08,.04-.15,0-.23-.78-1.77-1.56-3.55-2.34-5.32-.02-.05-.04-.09-.07-.16h.41c.23,0,.47,0,.7,0,.08,0,.12,.02,.15,.1,.56,1.36,1.12,2.71,1.69,4.07,.02,.04,.03,.08,.06,.14,.02-.05,.04-.07,.05-.1,.55-1.36,1.1-2.71,1.64-4.07,.04-.09,.08-.13,.19-.13,.35,0,.71,0,1.08,0-.01,.04-.02,.07-.03,.1-1.22,2.8-2.44,5.61-3.66,8.41-.03,.07-.06,.1-.14,.09-.35,0-.69,0-1.06,0Z"/><path class="cls-10" d="M8.33,9.04c-.64,.59-1.39,.95-2.24,1.1-1.36,.25-2.64,.05-3.81-.71-.76-.49-1.35-1.14-1.75-1.95l1.66-1.28c.14,.35,.3,.68,.54,.96,.68,.8,1.54,1.17,2.59,1.08,.51-.04,.97-.19,1.4-.46,.15,.11,.29,.23,.44,.34,.39,.3,.78,.61,1.16,.91Z"/><path class="cls-14" d="M8.33,9.04c-.39-.3-.78-.61-1.16-.91-.15-.11-.29-.23-.44-.34,.35-.26,.65-.57,.82-.98,.07-.17,.12-.35,.19-.55h-2.71v-1.92h4.72c.02,.17,.05,.34,.06,.51,.07,.96-.05,1.88-.45,2.76-.25,.55-.59,1.03-1.03,1.43Z"/><path class="cls-1" d="M2.2,6.2l-1.66,1.28c-.27-.51-.43-1.05-.5-1.62-.12-.96,.02-1.89,.44-2.77,.02-.04,.04-.07,.06-.1,.38,.29,.76,.59,1.14,.88,.17,.13,.35,.26,.52,.39-.12,.4-.19,.8-.14,1.21,.03,.24,.09,.49,.14,.73Z"/></g><g><path class="cls-6" d="M49.02,.24c.72,.05,1.41,.22,2.06,.53,1.6,.76,2.67,1.98,3.24,3.66,.14,.41,.22,.84,.26,1.27,.13,1.56-.26,2.98-1.22,4.23-.89,1.17-2.07,1.92-3.52,2.23-.28,.06-.55,.1-.84,.11h-.79c-.33-.02-.66-.06-.98-.14-1.77-.44-3.09-1.46-3.97-3.06-.41-.74-.63-1.54-.69-2.38,0-.09,0-.18-.03-.27v-.44s.01-.04,.02-.06c.01-.11,.03-.22,.04-.33,.04-.43,.13-.85,.28-1.25,.62-1.74,1.78-2.97,3.49-3.68,.58-.24,1.18-.37,1.8-.41l.29-.02c.09,0,.18,0,.27,0l.29,.02Zm1.33,5.14s.07,0,.11,0c.18,0,.36,0,.55,0,.12,0,.18-.05,.18-.17,0-.02,0-.03,0-.05v-.64c0-.06-.03-.1-.09-.11-.03,0-.06,0-.09,0-.31,0-.62,0-.93,0-.07,0-.11-.02-.14-.08-.47-.8-.94-1.61-1.41-2.41-.05-.09-.12-.13-.23-.13-.22,0-.45,0-.67,0-.02,0-.05,0-.07,0-.11,.02-.17,.14-.11,.23,.01,.02,.03,.04,.05,.06,.55,.74,1.1,1.48,1.65,2.23,.02,.03,.04,.05,.06,.09-.05,0-.09,0-.12,0-.99,0-1.97,0-2.96,0-.13,0-.19,.05-.19,.18,0,.2,0,.4,0,.6,0,.11,.07,.2,.19,.19,.19,0,.39,0,.59,0,.03,0,.06,0,.09,0v.11c0,.54,0,1.07,0,1.61,0,.09,0,.17,.01,.26,.05,.47,.24,.88,.61,1.19,.36,.3,.78,.44,1.25,.42,.21,0,.41-.06,.61-.14,.03-.01,.06-.02,.11-.04v.12c0,.42,0,.84,0,1.26,0,.03,0,.05,0,.08,0,.07,.06,.13,.14,.14,.22,0,.44,0,.66,0,.08,0,.14-.06,.14-.14,0-.03,0-.06,0-.1,0-1.55,0-3.1,0-4.64v-.13Z"/><path class="cls-6" d="M82.9,9.38h-.75c-.02-.07-.03-5.64,0-5.84,.03,0,.05,0,.08,0,.7,0,1.41,0,2.11,0,.33,0,.66,.04,.96,.18,.55,.25,.92,.66,1.03,1.27,.06,.35,.04,.69-.07,1.03-.12,.35-.35,.61-.67,.8-.3,.17-.63,.27-.97,.3-.16,.01-.31,.02-.47,.02-.37,0-.75,0-1.12,0h-.12c0,.15,0,.3,0,.45,0,.15,0,.29,0,.44v1.35Zm0-2.91s.04,0,.05,0c.47,0,.93,0,1.4,0,.23,0,.45-.05,.66-.15,.25-.12,.41-.31,.49-.57,.05-.17,.06-.35,.05-.52-.02-.45-.32-.84-.74-.97-.15-.05-.3-.07-.45-.07-.46,0-.91,0-1.37,0-.02,0-.05,0-.08,0v2.27Z"/><path class="cls-6" d="M59.91,7.13v2.25c-.25,0-.5,0-.75,0-.02-.07-.03-5.65,0-5.84,.03,0,.05,0,.08,0,.7,0,1.41,0,2.11,0,.33,0,.66,.04,.96,.18,.55,.25,.92,.66,1.03,1.27,.06,.35,.04,.69-.07,1.03-.12,.36-.36,.62-.69,.8-.29,.17-.61,.26-.95,.29-.16,.01-.33,.02-.49,.02-.37,0-.74,0-1.11,0h-.12Zm0-.65h.11c.39,0,.77,0,1.16,0,.12,0,.24,0,.36-.02,.19-.02,.38-.08,.54-.17,.2-.11,.34-.28,.41-.5,.06-.18,.07-.36,.06-.55-.02-.49-.36-.89-.83-1-.11-.03-.23-.04-.35-.04-.46,0-.93,0-1.39,0-.02,0-.05,0-.07,0v2.28Z"/><path class="cls-6" d="M64.82,9.38h-.71c-.02-.07-.03-6.05,0-6.17h.72v2.35c.05,.01,.07-.03,.09-.05,.18-.21,.4-.37,.66-.46,.37-.13,.75-.13,1.12-.01,.4,.13,.63,.43,.74,.82,.05,.19,.08,.38,.08,.57,0,.96,0,1.92,0,2.88,0,.02,0,.04,0,.07h-.72v-.11c0-.91,0-1.81,0-2.72,0-.11,0-.22-.02-.33-.06-.35-.3-.55-.66-.6-.29-.04-.56,.02-.81,.16-.11,.06-.19,.17-.29,.25-.02,.02-.04,.05-.06,.07-.09,.1-.12,.22-.12,.36,0,.93,0,1.86,0,2.79v.12Z"/><path class="cls-6" d="M80.65,8.22l.47,.36c-.07,.12-.15,.21-.24,.3-.3,.3-.66,.46-1.07,.51-.32,.04-.65,.03-.96-.07-.66-.2-1.07-.65-1.27-1.3-.07-.22-.09-.46-.1-.69,0-.28,0-.56,.06-.83,.11-.5,.36-.91,.74-1.23,.35-.29,.76-.42,1.22-.4,.2,0,.39,.04,.58,.1,.42,.15,.7,.45,.89,.85,.11,.24,.17,.49,.19,.75,.02,.23,.02,.47,.02,.7,0,.02,0,.04,0,.07h-2.93c-.02,.12,0,.23,.02,.33,.05,.26,.15,.5,.32,.7,.18,.22,.42,.35,.7,.41,.21,.04,.41,.03,.62-.02,.21-.05,.37-.16,.52-.31,.07-.07,.14-.15,.22-.23Zm-.19-1.5c0-.22-.05-.42-.11-.62-.07-.22-.21-.38-.42-.48-.43-.22-.93-.15-1.27,.19-.18,.17-.27,.38-.33,.62-.02,.1-.05,.19-.04,.29h2.17Z"/><path class="cls-6" d="M90.56,6.8v.54s-.08,0-.12,0c-.9,0-1.8,0-2.7,0h-.11c-.02,.09,0,.16,0,.24,.04,.29,.15,.56,.33,.79,.18,.22,.42,.35,.7,.41,.18,.04,.37,.03,.55,0,.29-.05,.5-.22,.7-.43,.03-.03,.06-.07,.09-.1,0,0,.01,0,.02-.01l.46,.35c-.11,.17-.23,.3-.38,.42-.28,.22-.59,.35-.94,.39-.35,.04-.69,.03-1.02-.09-.61-.21-1-.64-1.18-1.25-.06-.21-.1-.42-.1-.63,0-.27,0-.54,.03-.8,.06-.41,.24-.77,.5-1.08,.38-.47,.88-.68,1.49-.66,.23,0,.45,.04,.66,.13,.42,.18,.69,.51,.85,.93,.11,.28,.15,.57,.16,.86Zm-.71-.08c0-.07-.01-.14-.02-.21-.03-.2-.07-.4-.17-.58-.03-.06-.07-.12-.12-.16-.27-.22-.57-.32-.92-.27-.5,.08-.94,.53-.94,1.22h2.17Z"/><path class="cls-6" d="M72.35,7.1c0,.3-.03,.6-.13,.89-.16,.44-.42,.8-.8,1.06-.2,.14-.43,.22-.66,.26-.49,.09-.96,.03-1.39-.22-.52-.29-.82-.74-.94-1.32-.04-.17-.04-.34-.06-.51-.02-.13,.04-.25,.04-.38,0-.26,.06-.51,.15-.75,.13-.32,.31-.6,.56-.83,.25-.24,.55-.37,.89-.43,.52-.09,1.02-.01,1.47,.29,.41,.27,.67,.66,.79,1.14,.07,.26,.1,.53,.1,.8Zm-.76-.05c0-.19-.03-.46-.14-.73-.08-.22-.2-.41-.38-.55-.24-.19-.51-.25-.8-.23-.21,.01-.41,.08-.57,.21-.23,.19-.41,.42-.49,.72-.06,.2-.08,.41-.09,.62-.01,.33,.02,.65,.15,.96,.17,.41,.45,.69,.91,.75,.5,.07,1.01-.13,1.24-.69,.13-.3,.17-.63,.18-1.05Z"/><path class="cls-6" d="M76.64,9.41h-.72s0-.08,0-.11c0-.9,0-1.8,0-2.7,0-.11,0-.23-.02-.34-.06-.36-.29-.57-.65-.61-.29-.03-.56,.01-.81,.15-.17,.1-.3,.24-.41,.4-.05,.07-.07,.15-.07,.24,0,.95,0,1.89,0,2.84v.11c-.07,.02-.62,.02-.72,0V5.06h.69l.04,.52s.04-.03,.05-.04c.27-.33,.63-.51,1.05-.55,.24-.02,.47-.01,.7,.05,.38,.1,.63,.35,.77,.72,.07,.18,.1,.37,.11,.56,0,.1,0,.19,0,.29,0,.9,0,1.79,0,2.69v.11Z"/><path class="cls-6" d="M47.81,5.39h1.59s0,.06,0,.09c0,.57,0,1.14,0,1.71,0,.39-.25,.71-.63,.8-.45,.11-.92-.23-.96-.69,0-.04,0-.08,0-.11,0-.57,0-1.13,0-1.7,0-.03,0-.06,0-.09Z"/></g><g><path class="cls-9" d="M141.3,12.28h-2.89l-.12-.59c-.08-.39-.16-.77-.24-1.16,0-.04-.02-.06-.07-.06-1.31,0-2.62,0-3.93,0,0,0-.01,0-.03,0-.1,.29-.21,.58-.31,.87-.11,.29-.21,.59-.32,.88-.01,.04-.03,.06-.07,.06-1.06,0-2.13,0-3.19,0,0,0-.01,0-.03,0,.04-.08,.07-.17,.1-.25,1.51-3.61,3.02-7.21,4.54-10.82,.15-.35,.36-.64,.7-.81,.25-.13,.52-.18,.79-.18,.84,0,1.68,0,2.52,0,0,0,.01,0,.03,0,.04,.17,.07,.34,.11,.51,.27,1.29,.54,2.57,.81,3.86,.27,1.29,.54,2.57,.81,3.86,.26,1.25,.52,2.51,.78,3.76,0,0,0,.02,.01,.02v.05Zm-6.37-4.28h2.59l-.93-4.51-1.66,4.51Z"/><path class="cls-12" d="M121.4,11.83l.44-2.72c.08,.04,.16,.07,.23,.11,.49,.23,.99,.44,1.52,.56,.67,.15,1.35,.21,2.03,.13,.32-.04,.63-.13,.91-.3,.24-.15,.43-.35,.5-.64,.07-.31,0-.59-.22-.82-.22-.25-.5-.42-.78-.58-.33-.18-.68-.35-1.01-.53-.54-.29-1.05-.62-1.48-1.07-.42-.43-.71-.94-.8-1.54-.09-.62,0-1.23,.25-1.8,.33-.77,.88-1.34,1.59-1.77,.65-.4,1.36-.63,2.1-.75,.67-.11,1.34-.13,2.02-.07,.7,.06,1.37,.21,2.02,.46,.02,0,.04,.02,.06,.03l-.42,2.6c-.15-.07-.3-.13-.44-.19-.82-.34-1.67-.45-2.55-.38-.34,.03-.67,.11-.96,.3-.24,.16-.42,.36-.45,.66-.02,.17,.03,.33,.13,.47,.13,.19,.29,.33,.49,.44,.4,.23,.8,.46,1.21,.67,.5,.26,.99,.54,1.42,.91,.47,.4,.83,.88,1.01,1.48,.13,.42,.14,.84,.1,1.27-.08,.74-.34,1.4-.82,1.97-.46,.55-1.04,.94-1.69,1.22-.64,.27-1.32,.42-2.01,.49-1.27,.12-2.51-.02-3.74-.37-.22-.06-.43-.15-.64-.22Z"/><path class="cls-9" d="M110.3,6.71l.36,1.73s.02-.05,.03-.07c.66-1.77,1.32-3.54,1.98-5.31,.34-.92,.68-1.84,1.02-2.76,.02-.05,.04-.07,.1-.07,1.05,0,2.09,0,3.14,0h.08s-.02,.06-.03,.08c-1.62,3.97-3.23,7.93-4.85,11.9-.02,.06-.05,.07-.11,.07-1.05,0-2.09,0-3.14,0-.06,0-.09-.02-.11-.08-.47-1.78-.95-3.57-1.42-5.35-.44-1.65-.88-3.3-1.32-4.96,0-.03,0-.05-.01-.08,.02,0,.04,.01,.06,.03,.33,.22,.68,.43,1,.67,1.22,.92,2.19,2.05,2.87,3.43,.12,.25,.23,.51,.34,.77Z"/><path class="cls-9" d="M119.45,12.28h-3.12c.07-.45,.14-.89,.22-1.34,.1-.64,.21-1.28,.31-1.91,.11-.67,.22-1.34,.32-2,.11-.67,.22-1.33,.32-2,.11-.67,.22-1.34,.32-2,.1-.63,.21-1.27,.31-1.9,.05-.28,.09-.57,.14-.85,0-.05,.04-.05,.08-.05,.37,0,.74,0,1.11,0,.62,0,1.24,0,1.86,0h.09l-1.95,12.06Z"/><path class="cls-2" d="M110.3,6.71c-.11-.26-.22-.52-.34-.77-.67-1.38-1.64-2.51-2.87-3.43-.32-.24-.66-.45-1-.67-.02-.01-.04-.02-.06-.03h-.01c-.37-.2-.73-.41-1.11-.58-.68-.32-1.39-.56-2.12-.74-.02,0-.04-.01-.06-.02,.01-.07,.02-.13,.04-.19,0-.02,.03-.03,.05-.04,.01,0,.03,0,.04,0,1.63,0,3.25,0,4.88,0,.19,0,.38,.02,.56,.06,.51,.11,.81,.45,.91,.95,.23,1.15,.45,2.3,.68,3.45,.13,.65,.25,1.29,.38,1.94,0,.03,0,.05,0,.08Z"/><path class="cls-9" d="M106.03,1.79h0Z"/></g><g><path class="cls-8" d="M158.35,0h.41c.13,.02,.26,.03,.4,.05,.44,.07,.87,.19,1.27,.37,.37,.17,.72,.37,1.04,.63,0,0,0,.02-.01,.02-.06,.05-.12,.1-.17,.15-.08,.08-.17,.15-.25,.23-.07,.07-.14,.15-.2,.23-.11,.14-.23,.27-.33,.41-.19,.27-.35,.55-.49,.86-.1,.23-.18,.47-.25,.71-.06,.24-.11,.48-.14,.73-.01,.15-.03,.3-.03,.45,0,.12,0,.24,0,.35,0,.17,.03,.35,.05,.52,.04,.26,.1,.51,.18,.76,.11,.33,.25,.65,.42,.96,.19,.33,.41,.63,.67,.91,.16,.17,.33,.32,.51,.47,.01,.01,.02,.02,.03,.04-.07,.05-.14,.11-.21,.16-.73,.51-1.54,.8-2.43,.88-.33,.03-.65,.02-.98-.02-.34-.04-.67-.11-.99-.22-1.46-.49-2.6-1.63-3.1-3.09-.14-.42-.23-.85-.25-1.29,0-.07,0-.14-.02-.22v-.2l.02-.23c.02-.15,.03-.31,.05-.46,.09-.6,.29-1.16,.59-1.68,.71-1.2,1.75-1.98,3.1-2.34,.28-.07,.57-.12,.86-.13h.24Z"/><path class="cls-4" d="M164.44,0h.41s.1,.02,.15,.02c.26,.02,.52,.07,.77,.13,1.02,.27,1.87,.8,2.54,1.61,.71,.84,1.1,1.82,1.16,2.92v.53c0,.17-.02,.34-.05,.51-.08,.49-.22,.96-.44,1.41-.33,.66-.77,1.22-1.35,1.68-.85,.68-1.83,1.04-2.92,1.08-.36,.01-.72-.02-1.08-.08-.66-.12-1.27-.37-1.83-.75-.1-.07-.2-.15-.3-.22,0-.01,.02-.03,.03-.04,.06-.05,.13-.1,.18-.15,.14-.13,.27-.27,.41-.41,.03-.03,.06-.07,.09-.11,.15-.18,.29-.37,.41-.58,.14-.22,.26-.45,.35-.69,.08-.2,.15-.4,.21-.6,.05-.18,.09-.37,.12-.55,.02-.12,.03-.25,.04-.38,.01-.14,.02-.28,.02-.42,0-.04,0-.08,0-.12,0-.13-.01-.26-.02-.4-.02-.19-.05-.38-.09-.56-.09-.38-.22-.74-.39-1.09-.12-.24-.26-.47-.41-.69-.14-.19-.28-.37-.45-.54-.06-.06-.13-.13-.19-.19-.07-.06-.14-.12-.2-.18-.03-.03-.07-.07-.1-.1,0,0,.01-.02,.02-.02,.23-.18,.48-.34,.74-.47,.44-.23,.91-.39,1.4-.48,.19-.03,.38-.06,.57-.07h.2Z"/><path d="M167.92,12.43s-.04-.02-.06-.02c-.27-.06-.47-.28-.5-.56-.02-.15,0-.29,.06-.43,.13-.27,.44-.42,.73-.35,.1,.02,.16,.06,.26,.17,0-.06,0-.12,0-.17,0-.06,0-.11,0-.17v-.33h.28v1.83h-.28v-.14h-.02c-.07,.09-.16,.14-.26,.16-.02,0-.03,.01-.05,.02h-.17Zm-.27-.7s0,.09,.02,.13c.04,.17,.19,.29,.37,.3,.15,0,.3-.07,.37-.25,.03-.08,.04-.17,.03-.26-.03-.19-.17-.33-.36-.34-.2-.02-.36,.09-.41,.28-.01,.05-.02,.09-.02,.14Z"/><path d="M157.21,12.43s-.03-.02-.05-.02c-.28-.07-.47-.29-.5-.57-.02-.14,0-.28,.06-.41,.13-.28,.44-.43,.74-.36,.1,.02,.19,.08,.26,.17v-.15h.29v1.31h-.29v-.15l-.05,.05c-.06,.06-.12,.09-.2,.11-.02,0-.04,.02-.07,.02h-.2Zm-.27-.69s0,.08,.02,.12c.04,.17,.19,.29,.38,.3,.16,0,.31-.09,.37-.25,.03-.09,.04-.18,.02-.27-.03-.19-.18-.32-.38-.33-.19,0-.35,.11-.4,.29-.01,.04-.01,.09-.02,.13Z"/><path d="M165.25,12.43s-.03-.02-.05-.02c-.26-.07-.45-.28-.49-.55-.02-.16,0-.32,.08-.47,.14-.26,.44-.39,.72-.32,.1,.02,.19,.08,.26,.16,.02-.05,0-.1,.01-.15h.28v1.31h-.28v-.14h-.02c-.07,.09-.16,.14-.26,.16-.01,0-.03,.01-.04,.02h-.2Zm.55-.7s0-.07-.02-.11c-.04-.18-.19-.3-.38-.3-.19,0-.33,.11-.38,.29-.02,.08-.02,.15-.01,.23,.04,.26,.32,.41,.55,.3,.16-.08,.23-.22,.24-.4Z"/><path d="M161.45,12.43s-.02-.02-.04-.02c-.29-.06-.49-.29-.51-.61,0-.1,0-.2,.03-.3,.09-.28,.34-.46,.65-.45,.31,.01,.52,.22,.57,.53,.01,.09,.01,.18,.02,.26h-.01v.02c-.32,0-.64,0-.97,0,0,.02,0,.04,.01,.05,.04,.15,.15,.23,.3,.26,.15,.02,.28-.02,.41-.09,.02-.01,.03-.02,.06-.04l.14,.2c-.09,.07-.19,.12-.3,.15-.04,.01-.08,.02-.12,.03,0,0-.02,0-.03,.01h-.02s-.09,0-.14-.01h-.05Zm.43-.81c-.01-.17-.12-.32-.33-.31-.19,0-.33,.14-.34,.31h.68Z"/><path d="M158.7,12.43s-.04-.02-.07-.02c-.12-.02-.22-.06-.32-.12-.01,0-.02-.02-.04-.03l.14-.22c.09,.06,.19,.1,.29,.12,.11,.02,.21,.03,.31,0,.04-.01,.08-.03,.11-.06,.06-.05,.04-.12-.02-.16-.07-.04-.15-.05-.23-.06-.09-.01-.17-.03-.26-.05-.02,0-.05-.02-.07-.03-.23-.11-.28-.4-.1-.59,.09-.09,.19-.13,.31-.14,.17-.02,.34,0,.5,.05,.06,.02,.11,.05,.17,.08l-.12,.24s-.03-.01-.05-.02c-.11-.05-.21-.08-.33-.09-.06,0-.12,0-.18,.02-.03,0-.06,.03-.08,.05-.05,.06-.03,.13,.03,.16,.04,.02,.09,.03,.14,.04,.08,.01,.17,.02,.25,.04,.06,.01,.12,.04,.18,.07,.23,.13,.22,.42,.07,.57-.08,.08-.19,.13-.3,.15-.03,0-.06,.02-.09,.02h-.02s0-.01-.01-.01c-.05,0-.1,0-.14,0,0,0-.01,0-.02,.01h-.04Z"/><path d="M160.27,12.43s-.03-.02-.05-.02c-.18-.04-.28-.17-.3-.35,0-.08,0-.15,0-.23,0-.16,0-.31,0-.47v-.02h-.25v-.26h.25v-.4h.29v.39h.46v.26h-.46s0,.04,0,.06c0,.17,0,.34,0,.51,0,.04,0,.07,0,.11,.02,.08,.06,.12,.14,.13,.08,0,.16,0,.23-.04,.02,0,.03-.02,.06-.03l.08,.24c-.06,.04-.13,.06-.2,.08-.02,0-.05,.02-.07,.02h-.17Z"/><path d="M163.96,12.43s-.02-.02-.04-.02c-.33-.07-.52-.34-.53-.65,0-.08,0-.17,.03-.25,.08-.25,.3-.43,.56-.45,.09,0,.19,0,.29,.01,.11,.01,.19,.06,.28,.13l-.13,.23s-.07-.04-.1-.06c-.11-.06-.22-.08-.34-.05-.17,.04-.28,.17-.3,.35,0,.07,0,.14,.02,.21,.06,.21,.23,.29,.42,.28,.09,0,.18-.04,.26-.09l.05-.03s.05,.08,.07,.12c.02,.04,.04,.08,.07,.11-.08,.07-.17,.11-.27,.13-.02,0-.04,.02-.07,.02h-.26Z"/><path d="M158.74,12.43s.01-.01,.02-.01c.05,0,.1,0,.14,0,0,0,0,0,.01,.01h-.17Z"/><path d="M161.49,12.43h.01s.09-.02,.14,0h-.15Z"/><path class="cls-5" d="M161.48,1.05h.02s.07,.07,.1,.1c.07,.06,.14,.12,.2,.18,.07,.06,.13,.13,.19,.19,.17,.17,.31,.35,.45,.54,.16,.22,.29,.45,.41,.69,.17,.35,.3,.71,.39,1.09,.04,.19,.07,.37,.09,.56,.01,.13,.02,.26,.02,.4,0,.04,.01,.08,0,.12,0,.14-.01,.28-.02,.42,0,.13-.02,.25-.04,.38-.03,.19-.07,.37-.12,.55-.06,.2-.13,.4-.21,.6-.1,.24-.22,.47-.35,.69-.12,.2-.27,.39-.41,.58-.03,.04-.06,.07-.09,.11-.14,.14-.27,.27-.41,.41-.06,.05-.12,.1-.18,.15-.01,.01-.02,.03-.03,.04h-.02s-.02-.03-.03-.04c-.18-.15-.35-.3-.51-.47-.26-.28-.48-.58-.67-.91-.18-.3-.32-.62-.42-.96-.08-.25-.14-.5-.18-.76-.02-.17-.05-.34-.05-.52,0-.12-.01-.24,0-.35,0-.15,.02-.3,.03-.45,.02-.25,.07-.49,.14-.73,.07-.24,.15-.48,.25-.71,.13-.3,.29-.59,.49-.86,.1-.14,.22-.28,.33-.41,.06-.08,.13-.15,.2-.23,.08-.08,.17-.16,.25-.23,.06-.05,.11-.1,.17-.15,0,0,0-.01,.01-.02Z"/><path d="M155.47,12.39h-.28s0-.04,0-.06c0-.22,0-.44,0-.66,0-.06,0-.12-.02-.17-.03-.11-.11-.17-.22-.18-.05,0-.09,0-.14,0-.12,.03-.2,.12-.21,.26,0,.04,0,.07,0,.11,0,.21,0,.41,0,.62v.07h-.28v-1.31h.28v.15s.08-.08,.12-.1c.05-.03,.1-.05,.15-.06,.05-.01,.1-.01,.15-.01,.05,0,.1,.01,.15,.03,.05,.02,.1,.05,.14,.08,.04,.03,.07,.07,.11,.11,0,0,.02-.02,.03-.03,.1-.12,.23-.18,.38-.19,.07,0,.15,0,.22,.02,.19,.04,.32,.19,.35,.38,0,.05,.01,.1,.01,.14,0,.25,0,.49,0,.74,0,.02,0,.04,0,.06h-.32s0-.04,0-.05c0-.22,0-.44,0-.66,0-.05,0-.11-.02-.16-.03-.12-.11-.19-.24-.19-.04,0-.09,0-.13,.01-.13,.03-.21,.14-.22,.29,0,.06,0,.12,0,.19,0,.19,0,.38,0,.57Z"/><path d="M162.76,12.39h-.29v-1.31h.28v.15c.18-.2,.32-.19,.54-.16l-.08,.27s-.09-.02-.13-.02c-.05,0-.1,0-.15,.01-.1,.03-.14,.11-.16,.2,0,.04-.01,.09-.01,.14,0,.22,0,.44,0,.66,0,.02,0,.04,0,.06Z"/><path d="M166.45,11.08h.28v.15c.07-.09,.14-.15,.24-.17,.1-.02,.19-.01,.3,0l-.08,.27s-.09-.02-.13-.02c-.04,0-.07,0-.11,0-.09,.01-.15,.06-.18,.14-.03,.06-.04,.13-.04,.19,0,.22,0,.45,0,.67,0,.02,0,.04,0,.06h-.28v-1.31Z"/></g><g><path class="cls-15" d="M192.8,2.49c-.05,.13-.1,.27-.15,.4-.35,.96-.71,1.92-1.06,2.88-.03,.09-.07,.12-.16,.12-.31,0-.61,0-.92,0-.08,0-.12-.02-.15-.1-.39-1.07-.79-2.15-1.18-3.22-.01-.03-.03-.06-.06-.09v.15c0,1.05,0,2.09,0,3.14,0,.1-.02,.13-.13,.13-.35,0-.69,0-1.04,0-.09,0-.11-.03-.11-.11,0-1.54,0-3.08,0-4.62,0-.09,.03-.11,.11-.11,.61,0,1.22,0,1.83,0,.08,0,.11,.03,.14,.1,.34,.93,.68,1.86,1.01,2.79,.01,.04,.03,.08,.06,.14,.04-.12,.08-.21,.12-.31,.32-.87,.63-1.75,.94-2.62,.03-.08,.07-.11,.16-.11,.59,0,1.19,0,1.78,0,.04,0,.07,0,.12,0v.11c0,1.53,0,3.07,0,4.6,0,.09-.02,.11-.11,.11-.35,0-.7,0-1.05,0-.09,0-.12-.03-.12-.12,0-1.08,0-2.15,0-3.23,0-.02,0-.03,0-.05h-.03Z"/><path class="cls-15" d="M216.81,5.89V1.06s.07,0,.11,0c.47,0,.94,0,1.41,0,.08,0,.13,.03,.17,.09,.6,.91,1.21,1.81,1.81,2.72,.02,.03,.05,.06,.09,.12V1.07h1.28V5.89s-.07,0-.11,0c-.45,0-.9,0-1.35,0-.07,0-.12-.02-.16-.08-.63-.95-1.26-1.9-1.89-2.85-.02-.03-.04-.05-.08-.11v.11c0,.94,0,1.87,0,2.81,0,.09-.02,.12-.11,.12-.35,0-.71,0-1.06,0h-.1Z"/><path class="cls-15" d="M206.61,10.37l1.59,1.73s-.07,0-.1,0c-.47,0-.94,0-1.41,0-.05,0-.11-.03-.15-.07-.45-.51-.89-1.02-1.34-1.53-.05-.06-.1-.09-.19-.09-.08,0-.17,0-.25,0-.09,0-.1,.03-.1,.11,0,.49,0,.97,0,1.46,0,.04,0,.07,0,.11h-1.3s0-.07,0-.1V7.84c0-.15,0-.31,0-.46,0-.07,.02-.1,.1-.1,.95,0,1.9,0,2.85,0,.39,0,.75,.12,1.06,.37,.38,.31,.54,.73,.53,1.2,0,.44-.16,.82-.5,1.11-.2,.17-.42,.29-.67,.35-.03,0-.06,.02-.12,.03Zm-1.94-1.03c.5,0,.99,0,1.49,0,.19,0,.34-.1,.41-.29,.12-.32-.09-.63-.45-.65-.34-.02-.68,0-1.01-.01-.14,0-.29,0-.44,0v.96Z"/><path class="cls-15" d="M203.27,4.15l1.59,1.74c-.05,0-.08,0-.11,0-.46,0-.92,0-1.38,0-.08,0-.13-.02-.18-.08-.43-.5-.86-.99-1.29-1.49-.08-.09-.15-.13-.28-.13-.3,.01-.3,0-.3,.3,0,.43,0,.87,0,1.3,0,.02,0,.05,0,.08h-1.28V1.06s.05,0,.08,0c.93,0,1.86,0,2.79,0,.41,0,.79,.11,1.11,.37,.41,.33,.57,.77,.54,1.28-.02,.29-.1,.55-.26,.79-.22,.31-.52,.5-.88,.61-.04,.01-.08,.02-.14,.04Zm-1.2-1.02h0c.26-.01,.52,0,.77-.02,.13,0,.25-.07,.33-.18,.11-.15,.13-.31,.06-.48-.08-.19-.24-.28-.43-.29-.46-.01-.93-.01-1.39-.02-.06,0-.09,.02-.09,.08,0,.27,0,.54,0,.81,0,.06,.02,.09,.09,.09,.22,0,.44,0,.66,0Z"/><path class="cls-15" d="M212.68,11.01v1.09h-4.09v-.12c0-1.52,0-3.04,0-4.56,0-.11,.02-.14,.14-.14,1.28,0,2.56,0,3.84,0,.1,0,.13,.03,.12,.13,0,.29,0,.58,0,.86,0,.09-.02,.11-.11,.11-.85,0-1.7,0-2.55,0-.15,0-.15,0-.15,.15,0,.2,0,.4,0,.61h.14c.82,0,1.64,0,2.46,0,.11,0,.14,.03,.14,.14,0,.28,0,.56,0,.84,0,.09-.02,.12-.12,.12-.83,0-1.66,0-2.48,0-.11,0-.14,.03-.14,.14,.01,.16,.01,.33,0,.49,0,.11,.02,.14,.13,.14,.71,0,1.41,0,2.12,0,.18,0,.36,0,.55,0Z"/><path class="cls-15" d="M191.87,9.14c0,.14,0,.26,0,.38,0,.2,0,.41,0,.61,0,.09-.03,.11-.11,.11-.83,0-1.66,0-2.48,0h-.13s0,.07,0,.1c0,.19,0,.37,0,.56,0,.09,.03,.11,.11,.11,.85,0,1.71,0,2.56,0,.11,0,.14,.03,.14,.14,0,.28,0,.55,0,.83,0,.04,0,.08,0,.12h-4.09s0-.08,0-.12c0-1.53,0-3.05,0-4.58,0-.11,.04-.13,.13-.13,1.28,0,2.57,0,3.85,0,.1,0,.12,.03,.12,.12,0,.29,0,.58,0,.86,0,.09-.03,.12-.12,.12-.86,0-1.71,0-2.57,0-.1,0-.13,.02-.12,.12,0,.21,0,.42,0,.65h2.73Z"/><path class="cls-15" d="M195.09,5.89V1.07h4.08v1.09h-.12c-.85,0-1.7,0-2.55,0-.1,0-.13,.02-.13,.13,.01,.17,0,.34,0,.51,0,.1,.02,.12,.12,.12,.82,0,1.65,0,2.47,0h.13v1.1h-.12c-.83,0-1.66,0-2.48,0-.1,0-.13,.03-.13,.13,0,.18,0,.36,0,.54,0,.08,.02,.11,.11,.11,.85,0,1.69,0,2.54,0,.16,0,.16,0,.16,.16,0,.28,0,.56,0,.84,0,.08-.02,.1-.1,.1-1.31,0-2.61,0-3.92,0-.02,0-.04,0-.07,0Z"/><path class="cls-15" d="M187.59,5.89h-.13c-.4,0-.8,0-1.2,0-.09,0-.13-.03-.16-.11-.1-.26-.22-.52-.32-.78-.03-.08-.07-.1-.15-.1-.67,0-1.35,0-2.02,0-.08,0-.12,.02-.14,.09-.11,.27-.22,.53-.33,.8-.02,.04-.07,.09-.1,.09-.43,0-.87,0-1.3,0-.02,0-.03,0-.06,0,.22-.49,.43-.98,.65-1.46,.48-1.09,.96-2.18,1.44-3.27,.03-.07,.07-.1,.14-.1,.5,0,.99,0,1.49,0,.07,0,.1,.02,.13,.09,.55,1.25,1.1,2.49,1.65,3.74,.14,.31,.28,.63,.41,.94,0,.02,0,.03,.02,.07Zm-2.31-2.05l-.68-1.61-.68,1.61h1.35Z"/><path class="cls-15" d="M216.56,5.89h-.12c-.41,0-.82,0-1.23,0-.08,0-.12-.02-.15-.1-.1-.26-.22-.52-.33-.79-.03-.07-.06-.1-.14-.1-.68,0-1.35,0-2.03,0-.08,0-.13,.02-.16,.1-.1,.26-.22,.52-.32,.78-.03,.08-.08,.11-.16,.11-.39,0-.78,0-1.17,0h-.14c.05-.12,.09-.22,.14-.32,.65-1.46,1.29-2.92,1.93-4.38,.05-.1,.1-.15,.22-.14,.47,0,.94,0,1.41,0,.08,0,.12,.02,.16,.1,.62,1.41,1.24,2.82,1.87,4.23,.07,.16,.14,.32,.23,.51Zm-2.98-3.62h-.03l-.66,1.58h1.35l-.66-1.58Z"/><path class="cls-15" d="M218.13,12.11c0-.3,0-.59,0-.88q0-.22,.22-.22c.79,0,1.59,0,2.38,0,.28,0,.46-.18,.43-.42-.02-.17-.13-.3-.3-.33-.07-.01-.14-.02-.21-.02-.41,0-.82,0-1.24,0-.46-.02-.88-.17-1.17-.55-.21-.28-.28-.61-.26-.95,.04-.79,.57-1.33,1.41-1.43,.12-.01,.23-.02,.35-.02,.84,0,1.69,0,2.53,0,.03,0,.06,0,.1,0-.08,.18-.16,.35-.24,.52-.07,.16-.15,.32-.22,.49-.03,.06-.07,.08-.13,.08-.67,0-1.35,0-2.02,0-.03,0-.06,0-.09,0-.24,.02-.4,.18-.39,.39,0,.21,.17,.36,.41,.37,.19,0,.39,0,.58,0,.3,0,.59,0,.89,.02,.26,.01,.52,.09,.74,.24,.32,.2,.49,.5,.55,.87,.06,.4,.01,.79-.21,1.14-.22,.36-.56,.56-.96,.65-.18,.04-.38,.05-.56,.06-.81,0-1.63,0-2.44,0h-.14Z"/><path class="cls-15" d="M217.61,7.29c-.1,.23-.2,.45-.3,.66-.04,.09-.09,.18-.13,.28-.04,.12-.11,.16-.24,.16-.66,0-1.31,0-1.97,0-.18,0-.34,.05-.43,.23-.11,.26,.07,.52,.37,.53,.2,0,.41,0,.61,0,.3,0,.6,0,.9,.02,.24,.02,.48,.09,.69,.22,.3,.19,.48,.46,.55,.81,.08,.45,.03,.88-.23,1.26-.26,.37-.64,.55-1.07,.62-.1,.02-.21,.02-.32,.02-.86,0-1.72,0-2.58,0-.03,0-.05,0-.08,0v-1.09h.12c.81,0,1.62,0,2.43,0,.08,0,.17-.01,.25-.04,.17-.06,.25-.21,.23-.39-.02-.17-.14-.3-.31-.32-.07-.01-.15-.01-.23-.02-.46,0-.92,.02-1.38-.03-.78-.08-1.28-.6-1.27-1.42,0-.54,.22-.97,.69-1.26,.32-.2,.68-.26,1.05-.26,.85,0,1.71,0,2.56,0,.02,0,.04,0,.09,0Z"/><path class="cls-15" d="M192.17,7.28h.15c.47,0,.94,0,1.41,0,.09,0,.15,.03,.21,.1,.38,.45,.77,.9,1.17,1.36,.09-.1,.17-.2,.26-.29,.32-.37,.63-.73,.95-1.1,.03-.03,.08-.06,.12-.06,.51,0,1.01,0,1.52,0,0,0,.02,0,.05,.02-.04,.04-.07,.08-.1,.12-.64,.72-1.28,1.44-1.93,2.16-.05,.06-.04,.09,0,.14,.69,.78,1.38,1.55,2.07,2.33,.01,.01,.02,.03,.04,.05-.05,0-.08,0-.12,0-.49,0-.97,0-1.46,0-.08,0-.13-.02-.18-.08-.4-.47-.8-.93-1.21-1.4,0-.01-.01-.03-.03-.05-.09,.1-.16,.18-.23,.27-.34,.4-.68,.8-1.03,1.19-.03,.03-.08,.07-.12,.07-.51,0-1.02,0-1.53,0,0,0-.01,0-.04-.01,.08-.09,.15-.17,.22-.25,.62-.7,1.25-1.4,1.87-2.11,.05-.06,.04-.09,0-.14-.64-.72-1.28-1.43-1.92-2.15-.04-.05-.08-.1-.15-.17Z"/><path class="cls-15" d="M199.55,12.1s-.06,0-.09,0c-.4,0-.79,0-1.2,0,0-.05,0-.09,0-.12,0-1.52,0-3.05,0-4.57,0-.1,.02-.14,.13-.14,.93,0,1.87,0,2.8,.01,.53,0,.98,.19,1.32,.62,.15,.2,.25,.42,.28,.67,.09,.57,0,1.09-.44,1.5-.35,.34-.79,.46-1.27,.47-.47,0-.95,0-1.42,0-.09,0-.12,.03-.12,.12,0,.44,0,.88,0,1.32v.12Zm.77-2.66h0c.23,0,.47,0,.7,0,.4-.02,.62-.42,.44-.78-.12-.23-.32-.28-.55-.28-.42,0-.83,0-1.25,0-.08,0-.12,.02-.11,.11,0,.28,0,.57,0,.85,0,.08,.02,.1,.1,.1,.23,0,.45,0,.68,0Z"/><path class="cls-15" d="M210.53,4.79c-.06,.13-.11,.23-.16,.34-.11,.23-.21,.46-.32,.68-.02,.03-.06,.08-.09,.08-.4,0-.81,.02-1.2-.1-.75-.23-1.24-.72-1.44-1.48-.17-.68-.16-1.36,.13-2.01,.25-.56,.68-.92,1.27-1.1,.34-.11,.68-.14,1.04-.14,.43,0,.86,0,1.29,0,.04,0,.09,0,.13,0v1.14s-.08,0-.12,0c-.5,0-.99,0-1.49,.02-.59,.03-1.01,.45-1.04,1.05-.01,.23,0,.46,.04,.68,.1,.48,.5,.81,.99,.84,.26,.01,.52,.01,.78,.02,.05,0,.11,0,.19,0Z"/><path class="cls-15" d="M205.24,1.06h1.29s0,.08,0,.12c0,1.53,0,3.05,0,4.58,0,.1-.02,.13-.13,.13-.39,0-.77,0-1.17,0V1.06Z"/></g></svg>